<!-- Generator: Adobe Illustrator 19.0.0, SVG Export Plug-In . SVG Version: 6.00 Build 0)  -->
<svg version="1.1" id="Capa_1" xmlns="http://www.w3.org/2000/svg" xmlns:xlink="http://www.w3.org/1999/xlink" x="0px" y="0px" viewBox="0 0 512 512" style="enable-background:new 0 0 512 512;" xml:space="preserve" width="512" height="512">
<path style="fill:#57555C;" d="M345,60H45C20.098,60,0,80.099,0,105v362c0,24.901,20.098,45,45,45h300c24.902,0,45-20.099,45-45V105  C390,80.099,369.902,60,345,60z" />
<path style="fill:#3C3A41;" d="M390,105v362c0,24.901-20.098,45-45,45H195V60h150C369.902,60,390,80.099,390,105z" />
<path style="fill:#FEDB41;" d="M507.203,152.1l-26.704-53.699c-2.699-5.101-8.101-7.8-13.499-7.8s-10.8,2.699-13.499,7.8  L426.797,152.1c-3.296,6.301-4.797,13.2-4.797,20.1v7.8l32.999,30H486.5l25.5-30v-7.8C512,165.3,510.499,158.401,507.203,152.1z" />
<path style="fill:#FD3C65;" d="M422,180v212l24.602,30h45.3L512,392V180H422z" />
<path style="fill:#CAE8F9;" d="M360,105v362c0,8.401-6.599,15-15,15H45c-8.401,0-15-6.599-15-15V105c0-8.401,6.599-15,15-15h300  C353.401,90,360,96.599,360,105z" />
<path style="fill:#B7E0F6;" d="M360,105v362c0,8.401-6.599,15-15,15H195V90h150C353.401,90,360,96.599,360,105z" />
<path style="fill:#FCBF29;" d="M512,172.2v7.8l-25.499,30H467V90.601c5.398,0,10.8,2.699,13.499,7.8l26.704,53.699  C510.499,158.401,512,165.3,512,172.2z" />
<polygon style="fill:#FD003A;" points="512,180 512,392 491.902,422 467,422 467,180 " />
<path style="fill:#18A7FC;" d="M255,30h-17.703C231.299,12.599,214.501,0,195,0s-36.299,12.599-42.297,30H135  c-24.902,0-45,20.099-45,45v30c0,8.401,6.599,15,15,15h180c8.401,0,15-6.599,15-15V75C300,50.099,279.902,30,255,30z" />
<path style="fill:#1689FC;" d="M300,75v30c0,8.401-6.599,15-15,15h-90V0c19.501,0,36.299,12.599,42.297,30H255  C279.902,30,300,50.099,300,75z" />
<g>
	<path style="fill:#32D736;" d="M94.395,235.605l-30-30c-5.859-5.859-5.859-15.352,0-21.211s15.352-5.859,21.211,0L105,203.789   l49.395-49.395c5.859-5.859,15.352-5.859,21.211,0s5.859,15.352,0,21.211l-60,60C109.746,241.465,100.254,241.465,94.395,235.605z" />
	<path style="fill:#32D736;" d="M105,346c-3.838,0-7.676-1.465-10.605-4.395l-30-30c-5.859-5.859-5.859-15.352,0-21.211   s15.352-5.859,21.211,0L105,309.789l49.395-49.395c5.859-5.859,15.352-5.859,21.211,0c5.859,5.859,5.859,15.352,0,21.211l-60,60   C112.676,344.535,108.838,346,105,346z" />
	<path style="fill:#32D736;" d="M94.395,447.605l-30-30c-5.859-5.859-5.859-15.352,0-21.211s15.352-5.859,21.211,0L105,415.789   l49.395-49.395c5.859-5.859,15.352-5.859,21.211,0s5.859,15.352,0,21.211l-60,60C109.746,453.465,100.254,453.465,94.395,447.605z" />
</g>
<g>
	<path style="fill:#10BB67;" d="M315,422h-90c-8.291,0-15-6.709-15-15s6.709-15,15-15h90c8.291,0,15,6.709,15,15   S323.291,422,315,422z" />
	<path style="fill:#10BB67;" d="M315,210h-90c-8.291,0-15-6.709-15-15s6.709-15,15-15h90c8.291,0,15,6.709,15,15   S323.291,210,315,210z" />
	<path style="fill:#10BB67;" d="M315,316h-90c-8.291,0-15-6.709-15-15s6.709-15,15-15h90c8.291,0,15,6.709,15,15   S323.291,316,315,316z" />
</g>
<path style="fill:#787780;" d="M422,392v45c0,24.901,20.098,45,45,45s45-20.099,45-45v-45H422z" />
<path style="fill:#57555C;" d="M467,392h45v45c0,24.901-20.098,45-45,45V392z" />
<g>
</g>
<g>
</g>
<g>
</g>
<g>
</g>
<g>
</g>
<g>
</g>
<g>
</g>
<g>
</g>
<g>
</g>
<g>
</g>
<g>
</g>
<g>
</g>
<g>
</g>
<g>
</g>
<g>
</g>
</svg>